<svg xmlns="http://www.w3.org/2000/svg" viewBox="0 0 900 700">
  <!-- Background -->
  <rect width="900" height="700" fill="#f8f9fa" />
  
  <!-- Title -->
  <text x="450" y="30" font-family="Arial" font-size="20" text-anchor="middle" font-weight="bold">PZEMManager Data Flow Diagram</text>
  
  <!-- Physical Devices -->
  <rect x="50" y="70" width="160" height="100" rx="5" fill="#ffcccc" stroke="#cc0000" stroke-width="2" />
  <text x="130" y="110" font-family="Arial" font-size="16" text-anchor="middle" font-weight="bold">PZEM-004T</text>
  <text x="130" y="130" font-family="Arial" font-size="14" text-anchor="middle">AC Power Meter</text>
  
  <rect x="50" y="200" width="160" height="100" rx="5" fill="#ffcccc" stroke="#cc0000" stroke-width="2" />
  <text x="130" y="240" font-family="Arial" font-size="16" text-anchor="middle" font-weight="bold">PZEM-017</text>
  <text x="130" y="260" font-family="Arial" font-size="14" text-anchor="middle">DC Power Meter</text>
  
  <!-- ESP32 Hardware -->
  <rect x="290" y="70" width="160" height="100" rx="5" fill="#ccccff" stroke="#0000cc" stroke-width="2" />
  <text x="370" y="110" font-family="Arial" font-size="16" text-anchor="middle" font-weight="bold">Hardware</text>
  <text x="370" y="130" font-family="Arial" font-size="14" text-anchor="middle">Serial 1</text>
  
  <rect x="290" y="200" width="160" height="100" rx="5" fill="#ccccff" stroke="#0000cc" stroke-width="2" />
  <text x="370" y="240" font-family="Arial" font-size="16" text-anchor="middle" font-weight="bold">Hardware</text>
  <text x="370" y="260" font-family="Arial" font-size="14" text-anchor="middle">Serial 2</text>
  
  <!-- Device Objects -->
  <rect x="530" y="70" width="160" height="100" rx="5" fill="#ccffcc" stroke="#00cc00" stroke-width="2" />
  <text x="610" y="110" font-family="Arial" font-size="16" text-anchor="middle" font-weight="bold">PZEM004Tv30</text>
  <text x="610" y="130" font-family="Arial" font-size="14" text-anchor="middle">Object</text>
  
  <rect x="530" y="200" width="160" height="100" rx="5" fill="#ccffcc" stroke="#00cc00" stroke-width="2" />
  <text x="610" y="240" font-family="Arial" font-size="16" text-anchor="middle" font-weight="bold">PZEM017v1</text>
  <text x="610" y="260" font-family="Arial" font-size="14" text-anchor="middle">Object</text>
  
  <!-- PZEMManager Core -->
  <rect x="410" y="350" width="400" height="250" rx="5" fill="#f0f0ff" stroke="#9090ff" stroke-width="2" />
  <text x="610" y="370" font-family="Arial" font-size="18" text-anchor="middle" font-weight="bold">PZEMManager</text>
  
  <rect x="450" y="390" width="160" height="60" rx="5" fill="#ffccff" stroke="#cc00cc" stroke-width="2" />
  <text x="530" y="425" font-family="Arial" font-size="14" text-anchor="middle">Device Array</text>
  
  <rect x="450" y="470" width="160" height="60" rx="5" fill="#ffccff" stroke="#cc00cc" stroke-width="2" />
  <text x="530" y="505" font-family="Arial" font-size="14" text-anchor="middle">Measurement Array</text>
  
  <rect x="630" y="390" width="160" height="60" rx="5" fill="#ffccff" stroke="#cc00cc" stroke-width="2" />
  <text x="710" y="425" font-family="Arial" font-size="14" text-anchor="middle">Core Functions</text>
  
  <rect x="630" y="470" width="160" height="60" rx="5" fill="#ffccff" stroke="#cc00cc" stroke-width="2" />
  <text x="710" y="505" font-family="Arial" font-size="14" text-anchor="middle">Config Functions</text>
  
  <!-- User Application -->
  <rect x="170" y="510" width="160" height="60" rx="5" fill="#ffffcc" stroke="#cccc00" stroke-width="2" />
  <text x="250" y="545" font-family="Arial" font-size="14" text-anchor="middle">User Application</text>
  
  <rect x="170" y="590" width="160" height="60" rx="5" fill="#ffffcc" stroke="#cccc00" stroke-width="2" />
  <text x="250" y="625" font-family="Arial" font-size="14" text-anchor="middle">Web Dashboard</text>
  
  <!-- Connections -->
  <!-- Physical to Hardware -->
  <line x1="210" y1="120" x2="290" y2="120" stroke="#666666" stroke-width="2" />
  <polygon points="290,120 280,115 280,125" fill="#666666" />
  <text x="250" y="110" font-family="Arial" font-size="12" text-anchor="middle">Modbus RTU</text>
  
  <line x1="210" y1="250" x2="290" y2="250" stroke="#666666" stroke-width="2" />
  <polygon points="290,250 280,245 280,255" fill="#666666" />
  <text x="250" y="240" font-family="Arial" font-size="12" text-anchor="middle">Modbus RTU</text>
  
  <!-- Hardware to Device Objects -->
  <line x1="450" y1="120" x2="530" y2="120" stroke="#666666" stroke-width="2" />
  <polygon points="530,120 520,115 520,125" fill="#666666" />
  <text x="490" y="110" font-family="Arial" font-size="12" text-anchor="middle">Data</text>
  
  <line x1="450" y1="250" x2="530" y2="250" stroke="#666666" stroke-width="2" />
  <polygon points="530,250 520,245 520,255" fill="#666666" />
  <text x="490" y="240" font-family="Arial" font-size="12" text-anchor="middle">Data</text>
  
  <!-- Devices to Arrays -->
  <line x1="610" y1="170" x2="530" y2="390" stroke="#666666" stroke-width="2" />
  <polygon points="530,390 534,380 524,382" fill="#666666" />
  
  <line x1="610" y1="300" x2="530" y2="390" stroke="#666666" stroke-width="2" />
  <polygon points="530,390 534,380 524,382" fill="#666666" />
  
  <!-- User App to Manager -->
  <line x1="330" y1="540" x2="450" y2="500" stroke="#666666" stroke-width="2" />
  <polygon points="450,500 440,498 444,508" fill="#666666" />
  <text x="390" y="510" font-family="Arial" font-size="12" text-anchor="middle">Request</text>
  
  <!-- Manager to Web -->
  <line x1="450" y1="520" x2="330" y2="590" stroke="#666666" stroke-width="2" />
  <polygon points="330,590 336,582 326,580" fill="#666666" />
  <text x="390" y="565" font-family="Arial" font-size="12" text-anchor="middle">JSON</text>
  
  <!-- Core to Device Array -->
  <line x1="630" y1="420" x2="610" y2="420" stroke="#666666" stroke-width="2" />
  <polygon points="610,420 620,425 620,415" fill="#666666" />
  
  <!-- Config to Device Array -->
  <line x1="630" y1="500" x2="610" y2="450" stroke="#666666" stroke-width="2" />
  <polygon points="610,450 612,460 618,452" fill="#666666" />
  
  <!-- Arrays Interaction -->
  <line x1="530" y1="450" x2="530" y2="470" stroke="#666666" stroke-width="2" />
  <polygon points="530,470 535,460 525,460" fill="#666666" />
  <text x="550" y="460" font-family="Arial" font-size="12" text-anchor="middle">Update</text>
  
  <!-- Legend -->
  <rect x="700" y="600" width="20" height="15" fill="#ffcccc" stroke="#cc0000" stroke-width="1" />
  <text x="725" y="613" font-family="Arial" font-size="12" text-anchor="start">Physical Devices</text>
  
  <rect x="700" y="625" width="20" height="15" fill="#ccccff" stroke="#0000cc" stroke-width="1" />
  <text x="725" y="638" font-family="Arial" font-size="12" text-anchor="start">Hardware</text>
  
  <rect x="700" y="650" width="20" height="15" fill="#ccffcc" stroke="#00cc00" stroke-width="1" />
  <text x="725" y="663" font-family="Arial" font-size="12" text-anchor="start">Device Objects</text>
  
  <rect x="700" y="675" width="20" height="15" fill="#ffccff" stroke="#cc00cc" stroke-width="1" />
  <text x="725" y="688" font-family="Arial" font-size="12" text-anchor="start">Manager Components</text>
</svg>
